Simulation
nRows=35
nColumns=15
endheader
time  TH_x TH_y TH_z SC_y  SC_z  SC_x  AC_y  AC_z  AC_x  GH_y  GH_z  GH_yy  EL_x  PS_y
5.382082397003745  0.000000  0.000000  0.000000  -31.769699401908685  11.438604501286306  18.359140671870648  54.02068481651711  17.60965243946882  12.66542255363568  -2.1394244605354373  62.28859201160575  4.1956741818382906  13.466715601147433  120.000000
5.422247191011236  0.000000  0.000000  0.000000  -31.743252489231462  11.32366623116462  18.3671749683692  54.034663837194515  17.550594303339665  12.392898607330887  -1.9435070565728494  62.337434502083084  3.8815304509970114  13.487481586067148  120.000000
5.4624119850187265  0.000000  0.000000  0.000000  -31.597069678287298  11.189830101868596  18.231028830946688  54.03806358541462  17.476359823408817  12.033866221038931  -1.7247912513312293  62.12766327961749  3.6493950201247123  13.427904985942707  120.000000
5.502576779026217  0.000000  0.000000  0.000000  -31.331710809795375  11.036602216711985  17.944069071715028  54.03715222322111  17.3833743930533  11.590011155703626  -1.4859558430387638  61.642679442446145  3.4887301379950224  13.304092070002952  120.000000
5.542741573033708  0.000000  0.000000  0.000000  -30.95151488740919  10.862200951049278  17.502448917994517  54.03885528265851  17.26724226266083  11.066091798040251  -1.2308462419000257  60.869184392558985  3.3861892887370653  13.138222338383834  120.000000
5.582906367041199  0.000000  0.000000  0.000000  -30.465134704914746  10.663552636893215  16.905405933960154  54.04955393966478  17.122820136516953  10.470096117412012  -0.9629624793386133  59.79944217831032  3.3283048790812453  12.954540448821955  120.000000
5.623071161048689  0.000000  0.000000  0.000000  -29.885755363212482  10.436439854251352  16.155646388603085  54.073858840767286  16.944534088562236  9.813195262544674  -0.6840303094336175  58.43336216867207  3.3042307064423597  12.775264551177148  120.000000
5.66323595505618  0.000000  0.000000  0.000000  -29.23093739897429  10.175939503758798  15.25968792106039  54.11380116791697  16.72697615436696  9.10963683007457  -0.3930791221238975  56.77992552244477  3.3079219761015817  12.61724589985909  120.000000
5.70340074906367  0.000000  0.000000  0.000000  -28.52184494455479  9.877072932485849  14.228190049935243  54.1686621062826  16.46552219832554  8.376458108117795  -0.08609479087176604  54.8576160344831  3.3392832146675286  12.490164636498685  120.000000
5.743565543071161  0.000000  0.000000  0.000000  -27.781881887071197  9.53560636404508  13.075991888572709  54.23537610702907  16.15707435471216  7.633108910564977  0.2436764256166406  52.69354896111451  3.4040738156503023  12.396579499322275  120.000000
5.7837303370786515  0.000000  0.000000  0.000000  -27.035181625422542  9.14894538787351  11.821901327352869  54.30938590772956  15.80067014330568  6.900628367538445  0.6048209917883428  50.3215843125196  3.5129580950076695  12.333217487659638  120.000000
5.823895131086142  0.000000  0.000000  0.000000  -26.305169864345352  8.71707899879465  10.487905327781927  54.38554436695355  15.398047699922389  6.200221163136735  1.0060837797636766  47.77972889977051  3.680293642954405  12.292862060803856  120.000000
5.864059925093633  0.000000  0.000000  0.000000  -25.61345935635736  8.243297269097104  9.098044435246747  54.45922711988803  14.953594515682653  5.551665606040901  1.4547595364390562  45.107247549190035  3.92278881400391  12.266354885963619  120.000000
5.904224719101124  0.000000  0.000000  0.000000  -24.978410499375936  7.734128796559531  7.67702238175675  54.52720175420896  14.474008054574096  4.972190893570861  1.95573365882977  42.34211407650798  4.257946508938229  12.244608252297365  120.000000
5.944389513108614  0.000000  0.000000  0.000000  -24.414195022427034  7.198989740950721  6.249291814147434  54.58820174447008  13.967922632133423  4.475790350896049  2.5101850152191547  39.51916342131031  4.703198888598106  12.220094285576087  120.000000
5.984554307116105  0.000000  0.000000  0.000000  -23.93102883324461  6.650184977179336  4.838309980779425  54.642849240351104  13.445745583063138  4.07259248473498  3.1143827740923014  36.669432725612054  5.275396686039292  12.18758773698971  120.000000
6.024719101123596  0.000000  0.000000  0.000000  -23.535302541870966  6.102527360823  3.4662453777640785  54.692981329083686  12.919556398023172  3.7682048834682416  3.7584410750587667  33.8201016464289  5.990836741128172  12.144710687775774  120.000000
6.064883895131086  0.000000  0.000000  0.000000  -23.22975964562599  5.572345234456555  2.1535412211449714  54.74114354720884  12.402785863646068  3.563777875717957  4.42576652893892  30.994812324308278  6.865309701296143  12.092352154940373  120.000000
6.1050486891385765  0.000000  0.000000  0.000000  -23.0134708105797  5.076574394414663  0.9183549616525125  54.79050399771845  11.909496065748408  3.4562956898284907  5.093399255030051  28.21392428063439  7.91391416834387  12.034873505458311  120.000000
6.145213483146067  0.000000  0.000000  0.000000  -22.881489927967298  4.631038154506946  -0.22314480403393774  54.845014949635946  11.453156705550539  3.438701363178047  5.733017079924626  25.494953649454175  9.150863899686916  11.98023484348124  120.000000
6.185378277153558  0.000000  0.000000  0.000000  -22.824517642146482  4.249059634726254  -1.2570746036858085  54.90994772915014  11.045938694581762  3.501341317438241  6.314161344966755  22.8531206677267  10.587697620006965  11.939720477161858  120.000000
6.225543071161049  0.000000  0.000000  0.000000  -22.82920715068261  3.940374712756501  -2.1705265108182665  54.99207751764244  10.696721016900606  3.6322947628040123  6.807334575071198  20.301678062858837  12.231767831738127  11.927133850169763  120.000000
6.265707865168539  0.000000  0.000000  0.000000  -22.87999245594316  3.710110410347869  -2.95179439841706  55.09850591598226  10.410228915455935  3.8177749016171854  7.183790337692296  17.85204301373634  14.087511887395738  11.957364707667901  120.000000
6.30587265917603  0.000000  0.000000  0.000000  -22.96128729889525  3.5589786807795236  -3.592008945421666  55.235239268493494  10.187517450535635  4.043674700814374  7.413495310243109  15.513967587196083  16.159653022076476  12.044620284852211  120.000000
6.346037453183521  0.000000  0.000000  0.000000  -23.059220739120533  3.4832634483514844  -4.085587286694191  55.40575818929127  10.027185169894762  4.296998850028391  7.461316313780954  13.29624404897708  18.457356951814994  12.2005134294547  120.000000
6.386202247191012  0.000000  0.000000  0.000000  -23.16291324347619  3.476736786923603  -4.430877077515059  55.610673659730594  9.926270523958172  4.566439141384185  7.2807498577780905  11.207021635038735  21.0011104160269  12.43293100539799  120.000000
6.426367041198501  0.000000  0.000000  0.000000  -23.264804486954727  3.531637156516317  -4.631069009260302  55.849809231939474  9.879176233256427  4.840656356634081  6.810233191319012  9.252727656361142  23.82615520470703  12.745439230414416  120.000000
6.466531835205992  0.000000  0.000000  0.000000  -23.3606258130989  3.6357405744810025  -4.695382996746552  56.12029699067381  9.877974767675282  5.111154051714301  5.953102854259541  7.43606111842018  27.002330277731854  13.135568260258419  120.000000
6.506696629213483  0.000000  0.000000  0.000000  -23.449726687404898  3.774069378423169  -4.636986103866423  56.414044046422255  9.91289399644959  5.373698548727135  4.535012681492408  5.756276149992251  30.676244349418862  13.594534237048617  120.000000
6.546861423220974  0.000000  0.000000  0.000000  -23.533660019180548  3.934671087213728  -4.472182818493489  56.72300215765713  9.973906748919358  5.622838375810771  2.2189623244110237  4.211460740038963  35.15506336602488  14.106913027146414  120.000000
6.587026217228464  0.000000  0.000000  0.000000  -23.615413996461907  4.109539026684538  -4.219969445965378  57.03991600006973  10.05155477786809  5.85068588804915  -1.8747201861465785  2.7996571693222783  41.287478923856334  14.650533284885684  120.000000
6.627191011235955  0.000000  0.000000  0.000000  -23.701329822381084  4.292276934139398  -3.899584039066038  57.35432221776701  10.135822891920611  6.049944773730897  -11.285931134214646  1.5275850281732595  52.582913381417505  15.198155178109797  120.000000
6.667355805243446  0.000000  0.000000  0.000000  -23.799700127050436  4.477035448232553  -3.529948873648992  57.65475031958117  10.216575768909111  6.214486866441488  -56.649330699100496  0.5407093679073578  99.64834229608053  15.720383477488808  120.000000
6.707520599250937  0.000000  0.000000  0.000000  -23.917345232408067  4.65870235873695  -3.1292715912556606  57.93196288550055  10.284502229303898  6.340088464781931  -146.30471113087148  0.9798938079176449  -169.19805473537915  16.190345725814453  120.000000
6.747685393258427  0.000000  0.000000  0.000000  -24.057489416660513  4.832490387967978  -2.7133066299557664  58.18017380019769  10.332040566461341  6.425784801094662  -162.8845994285691  1.9353902588311453  -151.33663423891562  16.58733510749715  120.000000
